<?xml version="1.0" encoding="UTF-8" ?>
<!DOCTYPE svg PUBLIC "-//W3C//DTD SVG 1.1//EN" "http://www.w3.org/Graphics/SVG/1.1/DTD/svg11.dtd">
<svg width="1178pt" viewBox="0 0 1178 366" version="1.1" xmlns="http://www.w3.org/2000/svg">
    <g id="#fefefeff">
    </g>
    <g id="#737373ff">
        <path fill="#737373" opacity="1.00"
            d=" M 231.36 28.38 C 240.63 18.36 255.19 17.32 268.00 17.20 C 279.92 17.31 292.82 17.98 302.93 25.06 C 312.24 31.86 315.00 44.12 315.13 55.04 C 315.20 74.04 315.20 93.04 315.13 112.04 C 304.81 112.08 294.48 112.10 284.16 112.02 C 284.04 89.16 284.27 66.29 284.05 43.43 C 273.77 43.39 263.48 43.41 253.19 43.42 C 253.16 136.01 253.14 228.59 253.20 321.17 C 263.50 321.22 273.81 321.25 284.11 321.16 C 284.12 274.53 284.22 227.90 284.06 181.27 C 278.94 181.17 273.82 181.30 268.70 181.17 C 268.60 173.01 268.62 164.85 268.69 156.68 C 284.16 156.62 299.64 156.61 315.12 156.69 C 315.22 207.45 315.18 258.21 315.14 308.97 C 314.98 321.03 311.91 335.24 300.40 341.49 C 288.04 347.81 273.58 347.72 260.03 347.14 C 248.12 346.33 234.48 343.13 227.84 332.19 C 222.43 323.51 222.09 312.92 222.13 303.00 C 222.19 223.33 222.05 143.65 222.20 63.98 C 222.59 51.80 221.97 37.65 231.36 28.38 Z" />
        <path fill="#737373" opacity="1.00"
            d=" M 506.91 24.91 C 517.11 17.94 530.05 17.40 542.00 17.21 C 554.16 17.42 567.59 18.50 577.23 26.76 C 585.65 34.28 587.65 46.24 587.65 57.00 C 587.69 152.99 587.66 248.98 587.67 344.97 C 577.34 345.09 567.01 345.06 556.68 344.98 C 556.59 290.74 556.69 236.50 556.63 182.26 C 546.32 182.19 536.01 182.22 525.70 182.25 C 525.62 236.49 525.70 290.73 525.67 344.97 C 515.34 345.09 505.01 345.06 494.68 344.98 C 494.61 249.66 494.65 154.33 494.66 59.00 C 494.92 46.93 496.56 32.77 506.91 24.91 M 525.76 43.97 C 525.73 81.54 525.36 119.17 525.94 156.73 C 536.17 156.54 546.39 156.73 556.62 156.62 C 556.66 118.89 556.68 81.16 556.61 43.43 C 546.39 43.78 535.67 42.64 525.76 43.97 Z" />
        <path fill="#737373" opacity="1.00"
            d=" M 55.67 19.64 C 75.32 19.78 95.01 18.95 114.62 20.46 C 127.80 21.32 141.61 28.89 146.24 41.81 C 149.03 51.94 148.44 62.60 148.67 73.00 C 148.67 146.00 148.67 219.00 148.67 292.00 C 148.53 301.83 148.83 311.83 146.52 321.46 C 144.31 330.13 137.06 336.45 129.35 340.36 C 120.62 344.83 110.55 344.48 101.02 344.96 C 85.91 345.09 70.79 345.06 55.68 344.99 C 55.62 236.54 55.63 128.09 55.67 19.64 M 86.71 45.10 C 86.59 136.51 86.76 227.92 86.62 319.33 C 96.93 319.79 107.27 319.42 117.59 319.52 C 117.71 228.06 117.63 136.59 117.64 45.12 C 107.33 45.03 97.02 45.04 86.71 45.10 Z" />
        <path fill="#737373" opacity="1.00"
            d=" M 170.01 19.62 C 180.33 19.56 190.65 19.57 200.98 19.62 C 201.01 128.08 201.02 236.54 200.98 345.00 C 190.65 345.06 180.33 345.07 170.01 345.00 C 169.94 236.54 169.93 128.08 170.01 19.62 Z" />
        <path fill="#737373" opacity="1.00"
            d=" M 336.33 344.97 C 336.47 236.49 336.05 127.99 336.55 19.52 C 346.81 19.69 357.07 19.49 367.33 19.64 C 367.37 128.09 367.38 236.54 367.32 344.98 C 356.99 345.06 346.66 345.10 336.33 344.97 Z" />
        <path fill="#737373" opacity="1.00"
            d=" M 385.01 19.61 C 415.90 19.56 446.80 19.59 477.70 19.60 C 477.75 28.08 477.78 36.56 477.69 45.04 C 467.47 45.13 457.25 45.01 447.04 45.08 C 446.94 145.05 447.06 245.02 446.98 345.00 C 436.65 345.06 426.33 345.07 416.01 344.99 C 415.89 245.03 416.03 145.07 415.94 45.11 C 405.63 44.97 395.32 45.17 385.01 45.02 C 384.92 36.55 384.94 28.08 385.01 19.61 Z" />
        <path fill="#737373" opacity="1.00"
            d=" M 609.01 19.61 C 619.33 19.57 629.65 19.56 639.97 19.61 C 640.07 119.58 639.91 219.56 640.05 319.53 C 654.07 319.56 668.10 319.46 682.12 319.57 C 682.22 328.04 682.18 336.51 682.15 344.98 C 657.77 345.08 633.38 345.06 609.01 344.99 C 608.94 236.53 608.94 128.07 609.01 19.61 Z" />
    </g>
    <g id="#ea5630ff">
        <path fill="#ea5630" opacity="1.00"
            d=" M 655.05 17.19 C 795.31 17.14 935.56 17.15 1075.81 17.18 C 1075.84 30.45 1075.83 43.71 1075.82 56.97 C 1068.54 57.07 1061.27 56.94 1054.00 57.02 C 1053.94 64.68 1053.94 72.34 1054.01 79.99 C 1061.27 80.11 1068.54 79.97 1075.81 80.05 C 1075.86 127.03 1075.80 174.01 1075.84 221.00 C 1076.17 232.49 1076.07 246.32 1085.44 254.56 C 1097.64 263.45 1113.61 260.41 1127.71 261.02 C 1127.70 275.70 1127.74 290.38 1127.69 305.06 C 970.15 305.19 812.60 305.11 655.06 305.10 C 655.01 209.13 655.02 113.16 655.05 17.19 M 750.57 66.47 C 750.56 63.33 750.55 60.18 750.56 57.04 C 741.90 56.96 733.24 57.00 724.59 57.02 C 724.56 125.01 724.54 192.99 724.60 260.98 C 733.25 261.00 741.91 261.05 750.56 260.96 C 750.58 200.17 750.53 139.37 750.59 78.58 C 759.15 78.55 767.72 78.50 776.28 78.60 C 776.34 139.39 776.30 200.18 776.30 260.96 C 784.96 261.04 793.61 261.01 802.27 260.98 C 802.29 200.23 802.34 139.47 802.25 78.72 C 810.82 78.34 819.41 78.62 828.00 78.59 C 828.08 139.38 828.00 200.18 828.04 260.98 C 836.69 261.01 845.34 261.02 854.00 260.98 C 854.09 200.65 854.00 140.33 854.04 80.01 C 854.05 72.67 852.70 64.27 846.57 59.47 C 832.19 50.59 812.09 54.93 800.31 66.41 C 797.74 60.78 792.32 56.97 786.36 55.67 C 773.56 52.84 759.88 57.42 750.57 66.47 M 882.77 59.76 C 873.40 64.72 870.91 76.29 870.75 86.03 C 870.65 133.68 870.73 181.34 870.71 229.00 C 870.75 237.93 871.90 247.87 878.39 254.62 C 884.85 260.89 894.34 262.29 902.95 262.95 C 914.09 263.36 925.93 263.38 936.09 258.16 C 945.03 253.32 947.82 242.41 948.14 232.97 C 948.33 219.33 948.22 205.69 948.20 192.06 C 939.62 192.02 931.03 192.00 922.45 192.08 C 922.43 207.87 922.48 223.66 922.43 239.46 C 913.80 239.55 905.16 239.52 896.53 239.47 C 896.46 214.11 896.49 188.76 896.51 163.40 C 913.73 163.28 930.96 163.45 948.18 163.32 C 948.30 138.55 948.21 113.78 948.23 89.01 C 948.11 80.94 947.48 72.16 942.47 65.47 C 936.24 57.57 925.52 55.78 916.08 55.08 C 904.89 54.68 893.00 54.59 882.77 59.76 M 976.26 60.23 C 967.14 65.65 965.13 77.24 964.99 87.00 C 964.96 135.00 964.94 183.00 965.00 231.01 C 965.26 240.29 967.14 250.99 975.21 256.77 C 983.90 262.58 994.85 263.09 1004.99 263.12 C 1014.43 262.92 1024.61 262.24 1032.63 256.70 C 1039.94 251.29 1042.05 241.66 1042.42 233.06 C 1042.72 219.40 1042.49 205.74 1042.55 192.07 C 1033.94 192.00 1025.34 192.03 1016.74 192.06 C 1016.63 207.87 1016.78 223.68 1016.66 239.49 C 1008.07 239.53 999.49 239.51 990.90 239.49 C 990.74 214.13 990.81 188.76 990.87 163.39 C 1008.07 163.33 1025.26 163.38 1042.46 163.37 C 1042.69 138.92 1042.51 114.46 1042.55 90.00 C 1042.42 81.14 1041.91 71.26 1035.77 64.28 C 1028.98 57.02 1018.43 55.60 1009.01 55.01 C 997.99 54.75 986.17 54.73 976.26 60.23 Z" />
        <path fill="#ea5630" opacity="1.00"
            d=" M 1101.72 17.19 C 1110.38 17.15 1119.03 17.13 1127.69 17.20 C 1127.74 30.46 1127.70 43.71 1127.71 56.97 C 1119.04 57.03 1110.37 57.02 1101.71 56.98 C 1101.68 43.71 1101.65 30.45 1101.72 17.19 Z" />
        <path fill="#ea5630" opacity="1.00"
            d=" M 990.94 78.57 C 999.51 78.57 1008.09 78.53 1016.66 78.58 C 1016.76 99.15 1016.68 119.73 1016.71 140.30 C 1008.09 140.31 999.48 140.35 990.87 140.28 C 990.83 119.71 990.70 99.13 990.94 78.57 Z" />
        <path fill="#ea5630" opacity="1.00"
            d=" M 896.68 140.36 C 896.28 119.78 896.55 99.17 896.54 78.57 C 905.16 78.54 913.79 78.51 922.41 78.59 C 922.48 99.15 922.47 119.72 922.42 140.28 C 913.84 140.39 905.26 140.24 896.68 140.36 Z" />
        <path fill="#ea5630" opacity="1.00"
            d=" M 1101.71 80.06 C 1110.38 80.01 1119.04 80.01 1127.71 80.06 C 1127.71 132.70 1127.71 185.33 1127.71 237.96 C 1119.04 238.03 1110.38 238.01 1101.72 237.97 C 1101.66 185.33 1101.67 132.69 1101.71 80.06 Z" />
    </g>
    <g id="#afafafff">
        <path fill="#afafaf" opacity="1.00"
            d=" M 724.91 319.50 C 859.13 319.53 993.36 319.49 1127.59 319.52 C 1127.79 327.98 1127.68 336.44 1127.67 344.91 C 993.34 345.22 859.00 345.06 724.67 344.99 C 724.62 336.50 724.19 327.97 724.91 319.50 Z" />
    </g>
</svg>