<?xml version="1.0" encoding="UTF-8" standalone="no" ?>
<!DOCTYPE svg PUBLIC "-//W3C//DTD SVG 1.1//EN" "http://www.w3.org/Graphics/SVG/1.1/DTD/svg11.dtd">
<svg width="100%" height="10rem" viewBox="0 0 500 307" version="1.1" xmlns="http://www.w3.org/2000/svg" xmlns:xlink="http://www.w3.org/1999/xlink" xml:space="preserve" xmlns:serif="http://www.serif.com/" style="fill-rule:evenodd;clip-rule:evenodd;stroke-linejoin:round;stroke-miterlimit:2;">
    <g>
        <path d="M304.649,45.337c-14.756,-27.016 -43.389,-45.337 -76.315,-45.337c-47.989,0 -86.891,38.9 -86.891,86.888c0,47.988 38.902,86.891 86.891,86.891c31.985,0 59.853,-17.32 74.935,-43.041c-12.851,16.111 -32.617,26.489 -54.818,26.489c-32.246,0 -59.347,-21.826 -67.515,-51.47c6.918,14.186 21.433,23.974 38.267,23.974c23.535,0 42.603,-19.068 42.603,-42.603c0,-23.533 -19.068,-42.6 -42.603,-42.6c-16.834,0 -31.349,9.784 -38.267,23.97c8.168,-29.664 35.269,-51.466 67.515,-51.466c23.031,-0.024 43.412,11.142 56.198,28.305" style="fill-rule:nonzero;" />
        <path d="M284.661,107.686c6.656,12.194 19.571,20.446 34.437,20.446c21.65,0 39.209,-17.556 39.209,-39.208c0,-21.673 -17.559,-39.23 -39.209,-39.23c-14.428,0 -27.016,7.814 -33.823,19.44c5.778,-7.269 14.711,-11.952 24.738,-11.952c14.558,0 26.774,9.85 30.474,23.226c-3.131,-6.393 -9.676,-10.816 -17.275,-10.816c-10.617,0 -19.241,8.606 -19.241,19.245c0,10.618 8.624,19.22 19.241,19.22c7.599,0 14.144,-4.422 17.275,-10.815c-3.679,13.376 -15.916,23.229 -30.474,23.229c-10.378,0 -19.571,-5.037 -25.352,-12.785" style="fill:#fbb92d;fill-rule:nonzero;" />
        <g>
            <g>
                <path d="M37.895,193.722l0,7.136l-30.693,0l0,25.503l30.693,0l0,7.202l-30.693,0l0,25.439l30.693,0l0,7.203l-37.895,0l0,-72.462l37.895,0l0,-0.021Z" style="fill-rule:nonzero;" />
                <path d="M44.375,266.184l22.9,-39.668l-18.96,-32.794l8.21,0l14.843,25.7l14.842,-25.7l8.252,0l-19.001,32.794l22.944,39.668l-8.21,0l-18.806,-32.531l-18.804,32.531l-8.21,0Z" style="fill-rule:nonzero;" />
                <path d="M125.44,200.858l0,65.326l-7.137,0l0,-65.326l-17.535,0l0,-7.136l42.165,0l0,7.136l-17.493,0Z" style="fill-rule:nonzero;" />
                <path d="M167.911,242.211l-10.441,0l0,23.973l-7.182,0l0,-72.462l19.877,0c5.737,0.743 10.597,3.106 14.537,7.091c4.729,4.774 7.095,10.465 7.095,17.077c0,6.719 -2.366,12.456 -7.095,17.184c-3.304,3.263 -6.327,5.233 -9.085,5.913l16.375,25.197l-8.714,0l-15.367,-23.973Zm-10.441,-41.287l0,34.063l10.09,0c4.707,0 8.713,-1.664 12.042,-5.013c3.328,-3.329 4.992,-7.356 4.992,-12.084c0,-4.684 -1.664,-8.69 -4.992,-12.018c-3.329,-3.308 -7.335,-4.972 -12.042,-4.972l-10.09,0l0,0.024Z" style="fill-rule:nonzero;" />
                <path d="M228.181,193.722l26.315,72.462l-7.599,0l-11.076,-30.453l-21.607,0l-11.275,30.453l-7.664,0l26.621,-72.462l6.285,0Zm5.055,34.893l-8.21,-22.635l-8.207,22.635l16.417,0Z" style="fill-rule:nonzero;" />
            </g>
            <g>
                <path d="M320.958,203.902c7.226,7.223 10.836,15.937 10.836,26.138c0,10.246 -3.61,18.959 -10.836,26.183c-7.224,7.223 -15.959,10.836 -26.183,10.836c-10.201,0 -18.915,-3.613 -26.117,-10.836c-7.224,-7.224 -10.837,-15.958 -10.837,-26.183c0,-10.201 3.613,-18.915 10.837,-26.138c7.226,-7.227 15.937,-10.837 26.117,-10.837c10.224,0 18.959,3.61 26.183,10.837Zm-26.183,-6.699c-9.041,0 -16.768,3.217 -23.206,9.631c-6.435,6.435 -9.652,14.165 -9.652,23.206c0,9.085 3.217,16.833 9.652,23.25c6.414,6.414 14.144,9.631 23.206,9.631c9.085,0 16.836,-3.217 23.25,-9.631c6.435,-6.438 9.631,-14.186 9.631,-23.25c0,-9.041 -3.196,-16.771 -9.631,-23.206c-6.414,-6.435 -14.186,-9.631 -23.25,-9.631Z" style="fill-rule:nonzero;" />
                <path d="M358.196,241.161c-0.393,0.021 -0.81,0.045 -1.226,0.045l-12.237,0l0,24.999l-4.072,0l0,-72.111l18.914,0c5.497,0.743 10.18,3.043 14.012,6.896c4.597,4.618 6.897,10.156 6.897,16.615c0,6.525 -2.279,12.084 -6.897,16.681c-3.196,3.196 -6.851,5.277 -10.968,6.261l16.615,25.658l-4.99,0l-16.048,-25.044Zm-13.463,-42.953l0,38.86l12.237,0c5.319,0 9.919,-1.907 13.706,-5.694c3.808,-3.787 5.712,-8.384 5.712,-13.79c0,-5.385 -1.904,-9.94 -5.712,-13.727c-3.811,-3.766 -8.387,-5.649 -13.706,-5.649l-12.237,0Z" style="fill-rule:nonzero;" />
                <path d="M402.922,194.094c11.865,0.066 21.061,3.391 27.583,9.937c7.203,7.247 10.795,15.94 10.795,26.12c0,10.222 -3.592,18.956 -10.795,26.159c-6.522,6.524 -15.718,9.829 -27.583,9.895l-13.356,0l0,-72.111l13.356,0Zm-9.284,4.224l0,63.683l9.239,0c10.357,0 18.543,-2.888 24.543,-8.669c6.369,-6.393 9.589,-14.12 9.589,-23.205c0,-9.041 -3.22,-16.768 -9.589,-23.206c-6,-5.757 -14.165,-8.624 -24.543,-8.624l-9.239,0l0,0.021Z" style="fill-rule:nonzero;" />
                <path d="M470.898,237.023l-24.783,-42.929l4.642,0l22.177,38.44l22.174,-38.44l4.642,0l-24.783,42.929l0,29.182l-4.093,0l0,-29.182l0.024,0Z" style="fill-rule:nonzero;" />
            </g>
        </g>
        <g>
            <path d="M0.723,306.115l0,-24.015l2.386,0l0,21.649l8.735,0l0,2.387l-11.121,0l0,-0.021Z" style="fill-rule:nonzero;" />
            <path d="M23.598,282.076l8.714,24.018l-2.519,0l-3.676,-10.093l-7.16,0l-3.743,10.093l-2.539,0l8.821,-24.018l2.102,0Zm1.685,11.583l-2.713,-7.511l-2.714,7.511l5.427,0Z" style="fill-rule:nonzero;" />
            <path d="M53.964,282.076l0,2.366l-8.734,0l0,8.45l8.734,0l0,2.386l-8.734,0l0,10.816l-2.387,0l0,-24.018l11.121,0Z" style="fill-rule:nonzero;" />
            <path d="M76.927,285.362c2.411,2.408 3.613,5.296 3.613,8.69c0,3.415 -1.202,6.327 -3.613,8.714c-2.408,2.407 -5.32,3.61 -8.711,3.61c-3.394,0 -6.285,-1.203 -8.693,-3.61c-2.407,-2.408 -3.613,-5.299 -3.613,-8.714c0,-3.394 1.206,-6.282 3.613,-8.69c2.408,-2.411 5.299,-3.613 8.693,-3.613c3.391,0 6.303,1.202 8.711,3.613Zm-8.735,-1.205c-2.735,0 -5.055,0.962 -7.004,2.911c-1.949,1.949 -2.912,4.27 -2.912,7.005c0,2.738 0.963,5.079 2.912,7.028c1.949,1.949 4.269,2.912 7.004,2.912c2.738,0 5.08,-0.963 7.008,-2.912c1.946,-1.949 2.911,-4.29 2.911,-7.028c0,-2.735 -0.965,-5.056 -2.911,-7.005c-1.928,-1.949 -4.249,-2.911 -7.008,-2.911Z" style="fill-rule:nonzero;" />
            <path d="M89.32,298.169l-3.461,0l0,7.946l-2.386,0l0,-24.015l6.59,0c1.904,0.24 3.503,1.028 4.816,2.342c1.577,1.577 2.342,3.457 2.342,5.67c0,2.234 -0.786,4.138 -2.342,5.691c-1.095,1.074 -2.102,1.73 -2.999,1.97l5.431,8.363l-2.891,0l-5.1,-7.967Zm-3.461,-13.706l0,11.298l3.35,0c1.556,0 2.89,-0.549 3.985,-1.664c1.115,-1.095 1.664,-2.432 1.664,-4.006c0,-1.556 -0.549,-2.891 -1.664,-3.985c-1.095,-1.095 -2.429,-1.643 -3.985,-1.643l-3.35,0Z" style="fill-rule:nonzero;" />
            <path d="M121.458,282.076l0,24.018l-2.387,0l0,-20.492l-7.095,9.281l-1.226,1.643l-1.247,-1.619l-7.092,-9.305l0,20.492l-2.387,0l0,-24.018l2.693,0l8.057,10.51l8.033,-10.51l2.651,0Z" style="fill-rule:nonzero;" />
            <path d="M133.913,282.076l8.714,24.018l-2.519,0l-3.679,-10.093l-7.157,0l-3.742,10.093l-2.54,0l8.822,-24.018l2.101,0Zm1.686,11.583l-2.714,-7.511l-2.717,7.511l5.431,0Z" style="fill-rule:nonzero;" />
            <path d="M156.594,284.442l-10.489,0l0,-2.366l14.582,0l-12.522,21.652l13.245,0l0,2.387l-17.341,0l12.525,-21.673Z" style="fill-rule:nonzero;" />
            <rect x="163.731" y="282.076" width="2.387" height="24.015" />
            <path d="M190.24,285.362c2.408,2.408 3.614,5.296 3.614,8.69c0,3.415 -1.206,6.327 -3.614,8.714c-2.407,2.407 -5.319,3.61 -8.713,3.61c-3.391,0 -6.282,-1.203 -8.69,-3.61c-2.408,-2.408 -3.613,-5.299 -3.613,-8.714c0,-3.394 1.205,-6.282 3.613,-8.69c2.408,-2.411 5.299,-3.613 8.69,-3.613c3.415,0 6.306,1.202 8.713,3.613Zm-8.713,-1.205c-2.735,0 -5.056,0.962 -7.005,2.911c-1.949,1.949 -2.911,4.27 -2.911,7.005c0,2.738 0.962,5.079 2.911,7.028c1.949,1.949 4.27,2.912 7.005,2.912c2.737,0 5.079,-0.963 7.007,-2.912c1.946,-1.949 2.912,-4.29 2.912,-7.028c0,-2.735 -0.966,-5.056 -2.912,-7.005c-1.928,-1.949 -4.27,-2.911 -7.007,-2.911Z" style="fill-rule:nonzero;" />
            <path d="M199.194,282.076l14.429,20.231l0,-20.231l2.384,0l0,24.018l-2.801,0l-14.078,-19.727l0,19.727l-2.384,0l0,-24.018l2.45,0Z" style="fill-rule:nonzero;" />
            <path d="M232.319,282.076l0,2.366l-10.18,0l0,8.45l10.18,0l0,2.386l-10.18,0l0,8.429l10.18,0l0,2.387l-12.567,0l0,-24.018l12.567,0Z" style="fill-rule:nonzero;" />
            <path d="M258.37,282.076l2.386,0l0,17.055c-0.263,1.904 -1.052,3.503 -2.344,4.816c-1.575,1.577 -3.458,2.342 -5.671,2.342c-2.23,0 -4.134,-0.789 -5.691,-2.342c-1.574,-1.577 -2.342,-3.457 -2.342,-5.67l0,-16.201l2.387,0l0,16.201c0,1.532 0.546,2.869 1.664,3.985c1.095,1.115 2.429,1.664 4.006,1.664c1.554,0 2.888,-0.549 3.985,-1.664c1.095,-1.116 1.641,-2.432 1.641,-3.985l0,-16.201l-0.021,0Z" style="fill-rule:nonzero;" />
            <path d="M275.665,282.076l0,2.366l-8.738,0l0,8.45l8.738,0l0,2.386l-8.738,0l0,10.816l-2.383,0l0,-24.018l11.121,0Z" style="fill-rule:nonzero;" />
            <path d="M289.566,282.076l0,2.366l-8.735,0l0,8.45l8.735,0l0,2.386l-8.735,0l0,10.816l-2.386,0l0,-24.018l11.121,0Z" style="fill-rule:nonzero;" />
            <rect x="292.499" y="282.076" width="2.387" height="24.015" />
            <path d="M317.41,301.188l1.796,1.599c-2.626,2.386 -5.538,3.589 -8.713,3.589c-3.416,0 -6.303,-1.203 -8.69,-3.589c-2.387,-2.387 -3.589,-5.299 -3.589,-8.69c0,-3.394 1.202,-6.285 3.589,-8.693c2.387,-2.408 5.298,-3.61 8.69,-3.61c3.175,0 6.066,1.202 8.713,3.61l-1.796,1.598c-2.099,-1.859 -4.419,-2.779 -6.917,-2.779c-2.735,0 -5.056,0.962 -6.984,2.89c-1.925,1.925 -2.887,4.246 -2.887,6.984c0,2.735 0.962,5.076 2.887,7.004c1.928,1.925 4.27,2.891 6.984,2.891c2.498,0 4.818,-0.942 6.917,-2.804Z" style="fill-rule:nonzero;" />
            <rect x="322.337" y="282.076" width="2.387" height="24.015" />
            <path d="M337.662,282.076l8.714,24.018l-2.519,0l-3.679,-10.093l-7.157,0l-3.743,10.093l-2.539,0l8.821,-24.018l2.102,0Zm1.685,11.583l-2.713,-7.511l-2.717,7.511l5.43,0Z" style="fill-rule:nonzero;" />
            <path d="M348.322,306.115l0,-24.015l2.387,0l0,21.649l8.734,0l0,2.387l-11.121,0l0,-0.021Z" style="fill-rule:nonzero;" />
            <path d="M374.769,282.076l0,2.366l-10.18,0l0,8.45l10.18,0l0,2.386l-10.18,0l0,8.429l10.18,0l0,2.387l-12.567,0l0,-24.018l12.567,0Z" style="fill-rule:nonzero;" />
            <path d="M393.006,298.169l-3.461,0l0,7.946l-2.386,0l0,-24.015l6.59,0c1.904,0.24 3.503,1.028 4.816,2.342c1.577,1.577 2.342,3.457 2.342,5.67c0,2.234 -0.786,4.138 -2.342,5.691c-1.094,1.074 -2.102,1.73 -2.998,1.97l5.43,8.363l-2.891,0l-5.1,-7.967Zm-3.481,-13.706l0,11.298l3.349,0c1.553,0 2.89,-0.549 3.985,-1.664c1.115,-1.095 1.664,-2.432 1.664,-4.006c0,-1.556 -0.549,-2.891 -1.664,-3.985c-1.095,-1.095 -2.432,-1.643 -3.985,-1.643l-3.349,0Z" style="fill-rule:nonzero;" />
            <path d="M416.562,282.076l0,2.366l-10.18,0l0,8.45l10.18,0l0,2.386l-10.18,0l0,8.429l10.18,0l0,2.387l-12.567,0l0,-24.018l12.567,0Z" style="fill-rule:nonzero;" />
            <path d="M425.144,282.076c3.916,0.024 6.983,1.118 9.172,3.307c2.384,2.408 3.589,5.299 3.589,8.69c0,3.394 -1.205,6.306 -3.589,8.714c-2.189,2.189 -5.232,3.283 -9.172,3.307l-4.795,0l0,-24.018l4.795,0Zm-2.432,2.432l0,19.175l2.408,0c3.154,0 5.628,-0.875 7.421,-2.603c1.928,-1.928 2.891,-4.269 2.891,-7.007c0,-2.735 -0.963,-5.056 -2.891,-7.005c-1.793,-1.73 -4.267,-2.581 -7.421,-2.581l-2.408,0l0,0.021Z" style="fill-rule:nonzero;" />
            <path d="M451.501,295.299l0,10.816l-2.387,0l0,-24.015l2.387,0l0,10.812l10.659,0l0,-10.812l2.387,0l0,24.015l-2.387,0l0,-10.816l-10.659,0Z" style="fill-rule:nonzero;" />
            <path d="M477.027,282.076l8.714,24.018l-2.519,0l-3.679,-10.093l-7.158,0l-3.742,10.093l-2.54,0l8.822,-24.018l2.102,0Zm1.664,11.583l-2.716,-7.511l-2.714,7.511l5.43,0Z" style="fill-rule:nonzero;" />
            <path d="M493.27,284.442l0,21.652l-2.363,0l0,-21.652l-5.823,0l0,-2.366l13.988,0l0,2.366l-5.802,0Z" style="fill-rule:nonzero;" />
        </g>
    </g>
</svg>