<?xml version="1.0" encoding="UTF-8" standalone="no" ?>
<!DOCTYPE svg PUBLIC "-//W3C//DTD SVG 1.1//EN" "http://www.w3.org/Graphics/SVG/1.1/DTD/svg11.dtd">
<svg width="100%" height="100%" viewBox="0 0 174 65" version="1.1" xmlns="http://www.w3.org/2000/svg" xmlns:xlink="http://www.w3.org/1999/xlink" xml:space="preserve" xmlns:serif="http://www.serif.com/" style="fill-rule:evenodd;clip-rule:evenodd;stroke-linejoin:round;stroke-miterlimit:2;">
  <path d="M174,64.474l0,-9.348l-174,0l0,9.348l174,0Z" style="fill:#424242;" />
  <path d="M41.665,46.802l-9.783,0l0,-37.997l-12.529,0l0,-8.142l34.841,0l0,8.142l-12.529,0l0,37.997Z" style="fill:#424242;fill-rule:nonzero;" />
  <path d="M77.516,20.892l18.305,0l0,23.922c-2.967,0.968 -5.76,1.646 -8.379,2.036c-2.62,0.389 -5.297,0.583 -8.032,0.583c-6.964,0 -12.282,-2.046 -15.953,-6.138c-3.672,-4.092 -5.507,-9.967 -5.507,-17.626c0,-7.448 2.13,-13.254 6.39,-17.42c4.261,-4.166 10.168,-6.249 17.721,-6.249c4.734,0 9.299,0.947 13.697,2.84l-3.251,7.827c-3.366,-1.683 -6.869,-2.525 -10.509,-2.525c-4.229,0 -7.616,1.42 -10.162,4.261c-2.546,2.84 -3.819,6.659 -3.819,11.456c0,5.007 1.026,8.831 3.077,11.472c2.052,2.64 5.034,3.96 8.947,3.96c2.041,0 4.113,-0.21 6.217,-0.631l0,-9.626l-8.742,0l0,-8.142Z" style="fill:#424242;fill-rule:nonzero;" />
  <rect x="106.803" y="0.663" width="9.783" height="46.14" style="fill:#424242;fill-rule:nonzero;" />
  <path d="M137.826,46.802l-9.625,0l0,-46.139l26.446,0l0,8.016l-16.821,0l0,11.898l15.653,0l0,7.984l-15.653,0l0,18.241Z" style="fill:#424242;fill-rule:nonzero;" />
</svg>