<?xml version="1.0" encoding="UTF-8"?>
<svg id="Layer_2" data-name="Layer 2" xmlns="http://www.w3.org/2000/svg" viewBox="0 0 1516.98 494.85">
  <defs>
    <style>
      .cls-1, .cls-2, .cls-3 {
        fill: #fff;
      }

      .cls-4 {
        fill: #2da235;
      }

      .cls-5, .cls-2, .cls-3 {
        fill-rule: evenodd;
      }

      .cls-5, .cls-6 {
        fill: #424242;
      }

      .cls-7 {
        fill: none;
        stroke-width: 4px;
      }

      .cls-7, .cls-3 {
        stroke: #fff;
      }

      .cls-3 {
        stroke-miterlimit: 10;
      }
    </style>
  </defs>
  <g id="Layer_1-2" data-name="Layer 1">
    <path class="cls-1" d="M408.36,73.5l-11.67-3.83h-.01S209.42,8.13,209.42,8.13l-11.12-3.65L184.93,.08l-10.43,9.58-8.54,7.85L20.72,150.84l-10.06,9.23L.25,169.64l2.95,13.99,2.55,12.07v.02s42.37,201.23,42.37,201.23l1.29,6.11,1.02,4.81v.02s1.92,9.15,1.92,9.15l8.77,2.89,4.61,1.51,17.07,5.61,180.28,59.23h.01s12.58,4.14,12.58,4.14l.09,.03,11.79,3.89,1.6,.52,10.43-9.58,9.12-8.37,146.18-134.23,8.5-7.8,10.44-9.59-2.94-13.96-3.54-16.77-40.12-190.56-2.56-12.13-2.94-13.98-13.35-4.39Z"/>
    <g>
      <path class="cls-4" d="M81.76,393.46l-34.61-11.3L159.41,26.67l34.61,11.3L81.76,393.46Zm-31.03-13.16l29.2,9.53L190.44,39.83l-29.2-9.53L50.73,380.3Z"/>
      <path class="cls-4" d="M438.64,316.82L192.3,39.91l26.96-24.79,.95,1.07,245.39,275.84-26.96,24.79ZM196.31,40.11l242.53,272.62,22.74-20.91L219.06,19.2l-22.74,20.91Z"/>
      <path class="cls-4" d="M87.04,426.7l-7.69-36.11,358.94-79,7.69,36.11L87.04,426.7Zm-4.31-33.9l6.49,30.47,353.38-77.78-6.49-30.47L82.73,392.8Z"/>
    </g>
    <g>
      <g>
        <path class="cls-7" d="M408.11,73.42l-11.67-3.83h-.01S209.17,8.05,209.17,8.05l-11.12-3.65-13.36-4.4-10.43,9.58-8.54,7.85L20.47,150.76l-10.06,9.23L0,169.56l2.95,13.99,2.55,12.07v.02s42.37,201.23,42.37,201.23l1.29,6.11,1.02,4.81v.02s1.92,9.15,1.92,9.15l8.77,2.89,4.61,1.51,17.07,5.61,180.28,59.23h.01s12.58,4.14,12.58,4.14l.09,.03,11.79,3.89,1.6,.52,10.43-9.58,9.12-8.37,146.18-134.23,8.5-7.8,10.44-9.59-2.94-13.96-3.54-16.77-40.12-190.56-2.56-12.13-2.94-13.98-13.35-4.39Zm14.61,171.8l3.35,15.88,10.41,49.47,.32,1.44,.24,1.19-38.93,35.74-9.36,8.6-59.87,54.98h0s-9.11,8.37-9.11,8.37l-38.91,35.73-49.91-16.4-12.48-4.1-71.95-23.65-16.02-5.27-49.92-16.41-10.98-52.12-1.47-7.01-18.05-85.69-2.58-12.26-10.98-52.13,38.91-35.73,9.89-9.07h.02s60.58-55.64,60.58-55.64l7.89-7.24,38.91-35.73,49.88,16.39,11.98,3.94,76.6,25.19,11.9,3.91,49.89,16.4,10.98,52.13,2.55,12.14,16.21,76.97Z"/>
        <path class="cls-7" d="M408.11,73.42l-11.67-3.83h-.01s-65.24,14.09-65.24,14.09l-45.15,9.75-37.73,8.15-80.14,17.29-36.41,7.86-46.42,10.03h-.02s-64.85,14-64.85,14l-10.06,9.23L0,169.56l2.95,13.99,2.55,12.07v.02s44.58,50.33,44.58,50.33l33.07,37.34,23.51,26.55,55.25,62.38,27.09,30.59,29.48,33.28,44.36,50.08h.01s12.58,4.14,12.58,4.14l.09,.03,11.79,3.89,1.6,.52,10.43-9.58,9.12-8.37,20.44-64.3h0s14.17-44.63,14.17-44.63l12.08-38,25.77-81.07,11.76-37,13.85-43.57,20.45-64.34-2.56-12.13-2.94-13.98-13.35-4.39Zm-41.28,109.73l-11.76,36.99-37.5,118-12.17,38.3-25.11,78.99-54.05-61.04-26.89-30.35-80.78-91.21-23.83-26.91-56.97-64.32,82.48-17.81,35.94-7.76,118.15-25.52,37.73-8.15,79.53-17.17-24.78,77.97Z"/>
      </g>
      <g>
        <path class="cls-4" d="M408.11,73.42l-11.67-3.83h-.01S209.17,8.05,209.17,8.05l-11.12-3.65-13.36-4.4-10.43,9.58-8.54,7.85L20.47,150.76l-10.06,9.23L0,169.56l2.95,13.99,2.55,12.07v.02s42.37,201.23,42.37,201.23l1.29,6.11,1.02,4.81v.02s1.92,9.15,1.92,9.15l8.77,2.89,4.61,1.51,17.07,5.61,180.28,59.23h.01s12.58,4.14,12.58,4.14l.09,.03,11.79,3.89,1.6,.52,10.43-9.58,9.12-8.37,146.18-134.23,8.5-7.8,10.44-9.59-2.94-13.96-3.54-16.77-40.12-190.56-2.56-12.13-2.94-13.98-13.35-4.39Zm14.61,171.8l3.35,15.88,10.41,49.47,.32,1.44,.24,1.19-38.93,35.74-9.36,8.6-59.87,54.98h0s-9.11,8.37-9.11,8.37l-38.91,35.73-49.91-16.4-12.48-4.1-71.95-23.65-16.02-5.27-49.92-16.41-10.98-52.12-1.47-7.01-18.05-85.69-2.58-12.26-10.98-52.13,38.91-35.73,9.89-9.07h.02s60.58-55.64,60.58-55.64l7.89-7.24,38.91-35.73,49.88,16.39,11.98,3.94,76.6,25.19,11.9,3.91,49.89,16.4,10.98,52.13,2.55,12.14,16.21,76.97Z"/>
        <path class="cls-4" d="M408.11,73.42l-11.67-3.83h-.01s-65.24,14.09-65.24,14.09l-45.15,9.75-37.73,8.15-80.14,17.29-36.41,7.86-46.42,10.03h-.02s-64.85,14-64.85,14l-10.06,9.23L0,169.56l2.95,13.99,2.55,12.07v.02s44.58,50.33,44.58,50.33l33.07,37.34,23.51,26.55,55.25,62.38,27.09,30.59,29.48,33.28,44.36,50.08h.01s12.58,4.14,12.58,4.14l.09,.03,11.79,3.89,1.6,.52,10.43-9.58,9.12-8.37,20.44-64.3h0s14.17-44.63,14.17-44.63l12.08-38,25.77-81.07,11.76-37,13.85-43.57,20.45-64.34-2.56-12.13-2.94-13.98-13.35-4.39Zm-41.28,109.73l-11.76,36.99-37.5,118-12.17,38.3-25.11,78.99-54.05-61.04-26.89-30.35-80.78-91.21-23.83-26.91-56.97-64.32,82.48-17.81,35.94-7.76,118.15-25.52,37.73-8.15,79.53-17.17-24.78,77.97Z"/>
      </g>
    </g>
    <g>
      <g>
        <path class="cls-7" d="M336.43,163.82c-5.54,6.85-12.56,12.32-19.22,18.06-13.33,11.48-24.27,20.28-38.42,30.26-6.14,4.67-11.41,10.46-15.53,17.01-.79,1.22-1.58,2.45-2.29,3.72-4.41,7.92-4.39,7.87-7.55,16.35-4.34,11.64-11.24,26.22-11.24,39.08,0,6.06,4.19,9.76,7.64,14.22,3.53,4.55,7.23,8.98,10.52,13.71h0c5.65,7.18,26.91,44.55,33.69,89.55,0,0-12.22,44.84-13.75,49.62l-167.09-56.14s-3.32-44.61,9.94-81.2c.4-1.11,7.82-18.86,8.25-19.92,3.86-11.51,6.36-21.99,8.61-34,2.2-11.8,2.24-24.38,5.29-35.98,3.76-14.33,12.98-27.89,24.54-36.93,7.26-5.68,10.85-8.06,18.93-11.65,9.48-4.21,20.24-6.17,30.49-4.34,8.58,1.53,16.75,4.69,25.51,5.58,11.69,1.17,22.44-1.05,33.71-4.24,18.05-5.1,17.91-5.35,36.25-8.93,7.22-1.41,14.46-2.63,21.72-3.84Z"/>
        <g>
          <ellipse class="cls-7" cx="220.27" cy="195.42" rx="3.21" ry="2.3" transform="translate(-64.65 121.07) rotate(-26.95)"/>
          <path class="cls-7" d="M318.2,175.29c-2.34,1.9-4.63,3.86-7.02,5.69-4.5,3.46-9.06,6.84-13.65,10.18-9.25,6.73-18.55,13.37-27.85,20.02-9.16,6.65-16.36,11.99-27.71,12.56-4.24,.21-8.49,.12-12.74,.14-7.86,.03-15.71,.14-23.57,.02-1.73-.03-3.45-.21-5.16-.46-.55-.08-2.11-.34-1.59-.54,1.23-.47,2.63-.23,3.94-.35,3.26-.3,6.54-.43,9.78-.91,14-2.08,25.51-11.25,30.96-24.46,18.48-6.72,35.98-15.71,54.89-21.24,4.33-1.27,8.69-2.4,13.06-3.51,4.8-1.21,9.62-2.33,14.44-3.44-2.59,2.11-5.19,4.22-7.79,6.33Z"/>
          <path class="cls-7" d="M193.76,203.4c1.42-3.9,3.02-6.36,6.23-9.1,1.64-1.4,4.01-3.31,7.73-4.22-6.54,12.39,11.03,14.7,17.54,7.32-.93,2.36-2.97,4.57-4.81,6.17-5.15,4.5-11.94,7.07-18.77,6.83-1.64-.06-3.26-.42-4.84-.86-2.58-.72-4-3.61-3.08-6.15Z"/>
          <path class="cls-7" d="M280.3,455.42l-125.5-42.31c-2.84-46.22,30.15-93.77,30.93-105.81,.19-2.82,.66-13.56,5.86-13.57h.07c1.71,.02,3.65,1.2,5.8,2.66,3.71,2.53,8.08,5.94,13.13,5.96h.12c6.09-.05,9.32-6.6,15.12-6.6h.12c6.17,.11,13.24,7.75,16.58,11.84,5.64,6.96,8.24,12.61,12.78,20.57,5.9,10.34,11.37,22.79,14.58,34.16,3.16,11.28,12.44,34.59,14.79,77.7l-4.38,15.39Z"/>
        </g>
      </g>
      <g>
        <path class="cls-5" d="M336.43,163.82c-5.54,6.85-12.56,12.32-19.22,18.06-13.33,11.48-24.27,20.28-38.42,30.26-6.14,4.67-11.41,10.46-15.53,17.01-.79,1.22-1.58,2.45-2.29,3.72-4.41,7.92-4.39,7.87-7.55,16.35-4.34,11.64-11.24,26.22-11.24,39.08,0,6.06,4.19,9.76,7.64,14.22,3.53,4.55,7.23,8.98,10.52,13.71h0c5.65,7.18,26.91,44.55,33.69,89.55,0,0-12.22,44.84-13.75,49.62l-167.09-56.14s-3.32-44.61,9.94-81.2c.4-1.11,7.82-18.86,8.25-19.92,3.86-11.51,6.36-21.99,8.61-34,2.2-11.8,2.24-24.38,5.29-35.98,3.76-14.33,12.98-27.89,24.54-36.93,7.26-5.68,10.85-8.06,18.93-11.65,9.48-4.21,20.24-6.17,30.49-4.34,8.58,1.53,16.75,4.69,25.51,5.58,11.69,1.17,22.44-1.05,33.71-4.24,18.05-5.1,17.91-5.35,36.25-8.93,7.22-1.41,14.46-2.63,21.72-3.84Z"/>
        <g>
          <ellipse class="cls-1" cx="220.27" cy="195.42" rx="3.21" ry="2.3" transform="translate(-64.65 121.07) rotate(-26.95)"/>
          <path class="cls-2" d="M318.2,175.29c-2.34,1.9-4.63,3.86-7.02,5.69-4.5,3.46-9.06,6.84-13.65,10.18-9.25,6.73-18.55,13.37-27.85,20.02-9.16,6.65-16.36,11.99-27.71,12.56-4.24,.21-8.49,.12-12.74,.14-7.86,.03-15.71,.14-23.57,.02-1.73-.03-3.45-.21-5.16-.46-.55-.08-2.11-.34-1.59-.54,1.23-.47,2.63-.23,3.94-.35,3.26-.3,6.54-.43,9.78-.91,14-2.08,25.51-11.25,30.96-24.46,18.48-6.72,35.98-15.71,54.89-21.24,4.33-1.27,8.69-2.4,13.06-3.51,4.8-1.21,9.62-2.33,14.44-3.44-2.59,2.11-5.19,4.22-7.79,6.33Z"/>
          <path class="cls-2" d="M193.76,203.4c1.42-3.9,3.02-6.36,6.23-9.1,1.64-1.4,4.01-3.31,7.73-4.22-6.54,12.39,11.03,14.7,17.54,7.32-.93,2.36-2.97,4.57-4.81,6.17-5.15,4.5-11.94,7.07-18.77,6.83-1.64-.06-3.26-.42-4.84-.86-2.58-.72-4-3.61-3.08-6.15Z"/>
          <path class="cls-3" d="M280.3,455.42l-125.5-42.31c-2.84-46.22,30.15-93.77,30.93-105.81,.19-2.82,.66-13.56,5.86-13.57h.07c1.71,.02,3.65,1.2,5.8,2.66,3.71,2.53,8.08,5.94,13.13,5.96h.12c6.09-.05,9.32-6.6,15.12-6.6h.12c6.17,.11,13.24,7.75,16.58,11.84,5.64,6.96,8.24,12.61,12.78,20.57,5.9,10.34,11.37,22.79,14.58,34.16,3.16,11.28,12.44,34.59,14.79,77.7l-4.38,15.39Z"/>
        </g>
      </g>
    </g>
    <g>
      <path class="cls-6" d="M592.94,330.52c-12.99,.11-22.83-3.99-30-12.01-7.17-8.02-10.7-20.77-10.85-38.76l-.49-62.57c-.06-7.56-2.06-12.5-6.24-14.55-3.94-2.05-8.6-3.06-13.99-3.01h-.74s-.09-10.94-.09-10.94l43.87-.36,.71,89.94c.09,11.21,1.87,20.06,5.6,26.29,3.73,6.23,10.37,9.3,20.42,9.22,10.78-.09,18.6-4.06,23.44-11.92,4.84-7.6,7.21-17.79,7.11-30.56l-.42-53.7c-.06-8.08-2.07-13.28-6-15.33-3.94-2.31-8.6-3.32-14.24-3.27h-.74s-.09-10.94-.09-10.94l43.87-.36,.88,111.32c.06,7.56,2.06,12.5,6,14.55,4.18,1.79,8.85,2.8,14.24,2.75h.74s.09,10.94,.09,10.94l-38.97,.32-3.35-21.09h-1.23c-5.07,9.7-10.9,16.26-17.49,19.45-6.59,2.92-13.94,4.55-22.02,4.61h0Z"/>
      <path class="cls-6" d="M688.5,327.14l-.09-10.95,1.96-.02c5.64-.05,10.29-1.13,14.19-3.24,3.9-2.38,5.82-7.61,5.76-15.69l-.64-81.34c-.06-7.56-2.06-12.5-5.75-14.55-3.94-2.05-8.6-3.06-13.99-3.01h-1.23s-.09-10.94-.09-10.94l39.7-.32,3.35,21.09h1.23c5.07-9.7,10.66-16.26,16.76-19.18,6.35-3.18,13.44-4.8,21.29-4.87,12.99-.11,23.07,3.98,30.24,12.01,7.42,8.02,11.19,20.77,11.34,38.75l.49,61.53c.06,8.08,1.82,13.28,5.03,15.6,3.45,2.06,7.87,3.06,13.5,3.02h1.23s.09,10.94,.09,10.94l-42.65,.35-.71-89.94c-.09-11.21-2.12-20.06-6.33-26.28-3.97-6.22-10.86-9.3-20.91-9.22-7.35,.06-13.22,2.19-17.6,6.14-4.14,3.94-7.28,8.92-9.19,15.46-1.66,6.53-2.59,13.32-2.53,20.88l.43,55.01c.06,7.56,2.06,12.5,5.75,14.55,3.94,1.79,8.6,2.8,13.99,2.75h1.23s.09,10.94,.09,10.94l-65.93,.54h0Z"/>
      <path class="cls-6" d="M877.88,159.77c-3.92,.03-7.12-1.25-10.08-3.57-2.47-2.33-3.97-6.49-4.02-12.48-.05-6,1.39-10.18,4.07-12.55,2.68-2.37,5.85-3.7,9.77-3.73,3.68-.03,7.12,1.25,9.83,3.57,2.71,2.32,4.22,6.48,4.27,12.48,.05,6-1.39,10.18-4.07,12.55-2.68,2.37-6.1,3.7-9.77,3.73Zm-32.52,166.08l-.09-10.95,3.19-.03c5.39-.04,10.04-1.12,14.19-2.98,3.9-2.12,5.83-7.09,5.77-14.65l-.65-82.64c-.06-7.56-2.06-12.5-6-14.55-4.18-2.05-8.85-3.06-14.24-3.01h-.74s-.09-10.94-.09-10.94l43.87-.36,.87,110.02c.06,8.08,2.07,13.28,6.01,15.59,3.94,2.05,8.6,3.06,14.24,3.01l3.19-.03,.09,10.95-69.61,.57h0Z"/>
      <path class="cls-6" d="M919.38,325.25l-.09-10.95,2.21-.02c5.88-.05,10.53-1.13,14.19-3.5,3.66-2.38,7.79-6.84,12.39-13.4l30.55-42.75-31.23-44.59c-3.71-4.4-7.17-7.76-10.37-10.08-3.45-2.32-7.14-3.59-10.81-3.56l-3.19,.03-.09-10.95,62.25-.51,.09,10.95h-.74c-5.64,.05-9.55,.87-11.26,2.44-1.71,1.32-2.67,3.15-2.65,5.24,.01,1.82,.52,3.65,1.51,5.46,.99,1.56,2.48,3.63,4.22,6.48l16.36,23.33,12.59-19.66c1.69-2.88,3.14-5.76,4.34-8.64,1.2-2.62,1.68-4.97,1.66-7.31-.02-3.13-1.27-5.2-3.97-6.22-2.46-.76-5.65-1.26-9.32-1.23h-.74s-.09-10.94-.09-10.94l53.67-.44,.09,10.95-2.21,.02c-4.66,.04-8.82,1.11-12.23,3.23-3.41,2.11-7.55,6.58-12.39,13.66l-24.96,35.92,36.44,51.33c3.72,4.92,6.93,8.55,10.13,10.61,3.2,2.06,6.4,3.08,9.58,3.05l3.19-.03,.09,10.95-63.23,.52-.09-10.95h1.23c9.8-.09,14.68-3,14.64-8.73-.01-1.82-.77-3.9-2.01-6.24-1.24-2.34-3.73-6.23-7.45-11.67l-16.61-23.33-16.95,25.69c-1.45,2.1-2.9,4.72-4.35,7.86-1.45,2.88-2.16,5.75-2.14,8.62s1.26,4.94,3.48,6.23c2.46,1.28,6.39,1.77,11.78,1.73h.74s.09,10.94,.09,10.94l-58.33,.48h0Z"/>
      <path class="cls-4" d="M1155.89,323.33l-43.31-145.65h-.98c.27,3.4,.56,8.61,.86,15.64,.3,7.04,.85,14.33,1.16,22.41,.31,8.08,.61,15.12,.66,21.37l.68,86.55-33.09,.27-1.47-186.14,50.49-.41,42.54,142.01h.74s42.75-142.71,42.75-142.71l50.49-.41,1.47,186.14-34.56,.28-.69-88.12c-.05-6,.14-12.78,.33-20.34,.19-7.56,.37-14.86,.56-21.64,.19-7.04,.15-12.26,.37-15.65h-.98s-43.95,146.11-43.95,146.11l-34.07,.28h0Z"/>
      <path class="cls-4" d="M1326.87,123.79c5.39-.04,10.06,1.22,14,3.8,3.94,2.84,5.94,7.77,6,15.07,.06,7.04-1.87,12.01-5.76,14.91-3.9,2.9-8.55,4.24-13.94,4.29s-10.3-1.22-14-4.06c-3.94-2.84-5.94-7.77-6-14.81s1.86-12.27,5.52-15.17c3.9-2.64,8.55-3.98,14.18-4.03Zm18.58,55.64l1.12,142.34-36.52,.3-1.12-142.34,36.52-.3Z"/>
      <path class="cls-4" d="M1386.28,135.29l54.41-.44c23.28-.19,40.71,3.06,52.78,10,12.06,6.94,18.29,19.14,18.43,36.61,.08,10.69-2.05,19.57-6.65,26.91s-11.43,11.83-19.99,13.46v1.3c5.66,1.26,11.07,3.56,15.99,6.39,4.68,3.09,8.64,7.49,11.38,13.46,2.74,5.97,4.28,13.78,4.35,23.43,.13,16.95-5.4,30.03-17.09,39.77-11.44,9.74-26.85,14.56-46.7,14.72l-65.44,.53-1.47-186.14h0Zm37.59,73.48l21.57-.18c10.78-.09,18.37-1.97,22.26-5.66,4.14-3.42,6.3-8.92,6.25-15.95-.06-7.04-2.55-12.23-7.47-15.32-4.93-3.09-12.78-4.59-23.32-4.5l-19.61,.16,.33,41.45h0Zm.25,31.28l.38,48.49,24.26-.2c11.03-.09,18.85-2.5,23.23-7.23,4.38-4.47,6.53-10.74,6.47-18.3-.06-7.04-2.3-12.5-7-16.89-4.44-4.14-12.55-6.16-24.31-6.06l-23.04,.19h0Z"/>
    </g>
  </g>
</svg>