<?xml version="1.0" encoding="UTF-8" standalone="no"?><!DOCTYPE svg PUBLIC "-//W3C//DTD SVG 1.1//EN" "http://www.w3.org/Graphics/SVG/1.1/DTD/svg11.dtd"><svg width="100%" height="100%" viewBox="0 0 366 124" version="1.1" xmlns="http://www.w3.org/2000/svg" xmlns:xlink="http://www.w3.org/1999/xlink" xml:space="preserve" xmlns:serif="http://www.serif.com/" style="fill-rule:evenodd;clip-rule:evenodd;stroke-linejoin:round;stroke-miterlimit:2;"><g><path d="M28.928,0.228c-1.734,-0.304 -3.508,-0.304 -5.242,0l-0.388,5.451c-1.414,0.446 -2.712,1.2 -3.802,2.209l-4.886,-2.388c-1.129,1.36 -2.016,2.905 -2.621,4.569l4.498,3.063c-0.324,1.455 -0.324,2.963 0,4.418l-4.498,3.063c0.605,1.664 1.492,3.209 2.621,4.568l4.886,-2.387c1.09,1.009 2.388,1.763 3.802,2.209l0.388,5.45c1.734,0.305 3.508,0.305 5.242,0l0.388,-5.45c1.413,-0.446 2.712,-1.2 3.802,-2.209l4.885,2.387c1.13,-1.359 2.017,-2.904 2.622,-4.568l-4.498,-3.063c0.323,-1.455 0.323,-2.963 0,-4.418l4.498,-3.063c-0.605,-1.664 -1.492,-3.209 -2.622,-4.569l-4.885,2.388c-1.09,-1.009 -2.389,-1.763 -3.802,-2.209l-0.388,-5.451Zm-2.621,8.516c3.618,0 6.556,2.956 6.556,6.597c0,3.641 -2.938,6.597 -6.556,6.597c-3.618,0 -6.556,-2.956 -6.556,-6.597c0,-3.641 2.938,-6.597 6.556,-6.597Z" style="fill:#204a86;"/><path d="M60.118,32.917c1.227,0.009 2.454,0.009 3.691,0.019c0.167,14.82 0,29.65 0.084,44.479c7.121,-6.927 14.085,-14.002 21.244,-20.882c1.525,0.018 3.05,0.028 4.584,0.046c-7.066,7.252 -14.439,14.198 -21.552,21.394c7.931,8.34 15.955,16.596 23.858,24.964c-1.525,0 -3.05,0 -4.575,-0.01c-7.837,-8.209 -15.712,-16.382 -23.541,-24.591c-0.084,8.2 0.019,16.41 -0.074,24.61c-1.265,-0.009 -2.52,-0.009 -3.784,-0.009c-0.028,-23.337 -0.149,-46.683 0.065,-70.02Z" style="fill:#204a86;fill-rule:nonzero;"/><path d="M180.958,32.926l3.747,0c0.288,23.328 0.074,46.665 0.102,70.001c-1.181,0.01 -2.371,0.019 -3.552,0.038c-0.009,-2.195 -0.009,-4.379 0,-6.555c-6.806,6.61 -17.293,9.307 -26.2,5.625c-6.787,-2.622 -11.018,-9.577 -11.873,-16.596c-1.181,-8.349 0.111,-17.833 6.08,-24.202c8.517,-9.139 26.145,-7.493 31.649,4.175c-0.084,-10.832 -0.204,-21.663 0.047,-32.486m-29.204,30.785c-4.788,5.411 -5.299,13.118 -4.751,19.999c0.604,6.303 3.849,13.035 10.097,15.415c8.414,3.003 18.474,0.028 23.737,-7.271c-0.539,-8.805 1.962,-18.865 -3.942,-26.396c-5.56,-7.949 -18.568,-8.879 -25.141,-1.747Z" style="fill:#204a86;fill-rule:nonzero;"/><path d="M23.374,37.352c1.841,0.009 3.682,0.037 5.523,0.084c7.726,21.821 15.461,43.633 23.411,65.371c-1.553,0.074 -3.096,0.083 -4.649,0.111c-2.055,-6.406 -4.416,-12.7 -6.601,-19.05c-10.032,-0.019 -20.064,-0.028 -30.106,0c-2.231,6.368 -4.416,12.756 -6.638,19.125c-1.432,-0.047 -2.873,-0.093 -4.314,-0.149c7.894,-21.794 15.601,-43.652 23.374,-65.492m-11.111,42.908c9.177,0.009 18.344,0.037 27.521,-0.009c-4.509,-12.97 -9.111,-25.903 -13.751,-38.827c-4.77,12.877 -9.158,25.903 -13.77,38.836Z" style="fill:#204a86;fill-rule:nonzero;"/><path d="M98.061,59.396c7.949,-3.719 17.442,-5.411 25.875,-2.342c5.225,1.831 8.154,7.335 8.126,12.672c0.056,11.092 0.065,22.193 -0.019,33.285c-1.245,-0.028 -2.501,-0.056 -3.747,-0.074c0,-2.817 0.01,-5.625 0.028,-8.433c-5.866,8.758 -18.818,11.901 -27.901,6.499c-8.396,-5.486 -6.788,-19.999 2.24,-24.034c8.089,-3.598 17.247,-1.813 25.633,-0.372c0.233,-5.579 0.447,-12.877 -5.373,-15.824c-7.531,-3.459 -16.29,-1.469 -23.598,1.645c-0.418,-1.004 -0.836,-2.017 -1.264,-3.022m7.28,20.213c-7.894,2.697 -9.093,16.066 -1.162,19.404c5.234,2.074 11.603,1.711 16.373,-1.385c6.303,-3.422 8.823,-10.86 7.717,-17.684c-7.504,-1.292 -15.518,-2.826 -22.928,-0.335Z" style="fill:#204a86;fill-rule:nonzero;"/><path d="M200.966,63.701c6.155,-9.279 20.622,-11.101 29.073,-4.035c5.951,5.281 7.336,13.751 7.178,21.319c-12.245,0.075 -24.499,-0.009 -36.744,0.047c0.26,7.419 3.422,16.122 11.269,18.372c6.75,1.655 14.169,1.255 20.501,-1.748c0.474,0.957 0.948,1.906 1.422,2.863c-10.394,5.151 -25.559,5.142 -32.932,-5.03c-5.792,-9.427 -5.69,-22.453 0.233,-31.788m8.86,-3.291c-6.443,3.087 -8.962,10.562 -9.381,17.238c10.981,-0.056 21.961,0.148 32.932,-0.103c-0.623,-4.834 -1.181,-10.088 -4.5,-13.927c-4.537,-5.43 -12.914,-5.942 -19.051,-3.208Z" style="fill:#204a86;fill-rule:nonzero;"/><path d="M252.046,65.235c3.534,-6.015 10.042,-10.459 17.238,-9.818c6.778,-0.381 13.333,4.165 14.551,10.99c4.081,-9.632 16.586,-13.891 25.782,-9.084c5.002,2.771 6.889,8.796 6.898,14.207c0.066,10.469 0,20.947 0.019,31.425c-1.255,0.01 -2.51,0.019 -3.765,0.028c-0.075,-10.497 0.083,-20.994 -0.065,-31.49c-0.093,-4.389 -1.432,-9.568 -5.83,-11.501c-5.197,-2.204 -11.761,-1.358 -16.01,2.454c-4.445,3.84 -6.564,9.818 -6.509,15.592c-0.046,8.303 0.019,16.605 -0.018,24.908c-1.265,0 -2.529,0.009 -3.784,0.019c-0.01,-9.54 0.055,-19.079 -0.028,-28.618c-0.158,-4.11 -0.028,-8.758 -2.91,-12.05c-3.459,-3.737 -9.205,-4.091 -13.854,-2.798c-7.391,2.315 -11.817,10.125 -11.826,17.6c-0.093,8.637 0.019,17.265 -0.047,25.894c-1.255,-0.019 -2.51,-0.038 -3.756,-0.047c0.019,-15.452 -0.028,-30.905 0.019,-46.357c1.292,-0.01 2.594,-0.01 3.895,-0.019c0.028,2.892 0.028,5.774 0,8.665Z" style="fill:#204a86;fill-rule:nonzero;"/><path d="M323.135,56.505c1.497,0.335 3.905,-0.688 4.649,1.144c5.597,12.7 10.571,25.679 16.438,38.259c5.718,-13.1 11.324,-26.256 17.07,-39.357c1.376,0.01 2.752,0.028 4.138,0.038c-9.679,22.314 -19.479,44.581 -29.204,66.886c-1.339,-0.019 -2.677,-0.028 -4.007,-0.037c3.329,-7.633 6.778,-15.211 9.995,-22.891c-6.462,-14.634 -12.896,-29.287 -19.079,-44.042Z" style="fill:#204a86;fill-rule:nonzero;"/></g></svg>