<?xml version="1.0" encoding="UTF-8" standalone="no" ?>
<!DOCTYPE svg PUBLIC "-//W3C//DTD SVG 1.1//EN" "http://www.w3.org/Graphics/SVG/1.1/DTD/svg11.dtd">
<svg width="50%" height="50%" viewBox="0 0 2213 600" version="1.1" xmlns="http://www.w3.org/2000/svg" xmlns:xlink="http://www.w3.org/1999/xlink" xml:space="preserve" xmlns:serif="http://www.serif.com/" style="fill-rule:evenodd;clip-rule:evenodd;stroke-linejoin:round;stroke-miterlimit:2;">
  <rect id="Combination-Mark" serif:id="Combination Mark" x="0" y="0.791" width="150" height="40" style="fill:none;" />
  <g>
    <g>
      <circle id="Ellisse" cx="300.035" cy="300.791" r="292" style="fill:#fff;" />
      <clipPath id="_clip1">
        <circle cx="300.035" cy="300.791" r="292" />
      </clipPath>
      <g clip-path="url(#_clip1)">
        <clipPath id="_clip2">
          <rect id="Mascotte" x="-0.016" y="0.791" width="600.052" height="600.008" />
        </clipPath>
        <g clip-path="url(#_clip2)">
          <g>
            <path d="M405.232,600.798c-2.15,-9.137 -6.236,-24.813 -9.07,-31.711c-0.761,-1.852 -1.531,-3.706 -2.288,-5.556c-12.82,-33.438 -28.286,-69.742 -49.003,-99.495c-7.351,-10.557 -15.768,-20.331 -23.731,-30.434c-7.797,-9.893 -17.242,-18.113 -17.242,-31.564c0,-28.534 15.586,-60.891 25.358,-86.718c7.124,-18.828 7.081,-18.687 17.033,-36.268c1.6,-2.826 3.387,-5.542 5.172,-8.254c9.297,-14.556 21.202,-27.391 35.045,-37.756c31.894,-22.169 56.598,-41.678 86.666,-67.167c15.009,-12.724 30.838,-24.883 43.333,-40.083c-16.352,2.712 -32.708,5.425 -48.988,8.54c-41.361,7.914 -41.05,8.481 -81.765,19.808c-25.424,7.073 -49.669,12.011 -76.047,9.388c-19.749,-1.964 -38.187,-8.958 -57.532,-12.356c-23.126,-4.062 -47.404,0.282 -68.783,9.634c-18.224,7.973 -26.327,13.24 -42.712,25.84c-26.073,20.05 -46.87,50.157 -55.358,81.942c-6.875,25.744 -6.981,53.688 -11.952,79.845c-5.064,26.643 -12.503,55.253 -21.214,80.792c-0.955,2.356 -1.955,4.744 -2.99,7.155c-14.402,33.548 -28.427,108.154 -32.18,164.418" style="fill:#424242;" />
            <path d="M266.056,199.552c-14.685,16.37 -41.973,7.088 -44.817,-14.755c-4.387,2.026 -8.473,4.762 -12.175,7.867c-7.254,6.085 -10.86,11.548 -14.065,20.196c-2.09,5.639 1.122,12.048 6.939,13.639c3.567,0.976 7.234,1.773 10.929,1.902c15.406,0.539 30.723,-5.157 42.342,-15.151c4.146,-3.566 8.754,-8.455 10.847,-13.698" style="fill:#757575;" />
            <path d="M230.467,181.791c-1.154,5.607 0.612,11.49 4.729,15.557c2.403,2.374 5.488,4.018 8.77,4.673c1.182,0.235 3.598,0.347 3.598,0.347c8.617,-0.048 15.724,-6.31 17.018,-14.475l0.086,0.097c1.534,1.742 2.338,3.612 2.463,5.87c0.102,1.816 -0.294,3.734 -1.075,5.692c-4.712,5.253 -11.402,8.569 -18.857,8.62l-0.176,0.001c-13.195,0 -24.066,-10.181 -25.784,-23.376c0.186,-0.086 0.368,-0.178 0.555,-0.262c2.901,-1.293 5.655,-2.195 8.696,-2.851l-0.023,0.107" style="fill:#fff;" />
            <path d="M192.945,419.792c10.512,0.16 24.644,19.072 42.678,19.126l0.266,-0.001c13.742,-0.1 21.028,-14.634 34.12,-14.626l0.28,0.003c13.924,0.225 26.656,17.663 33.474,27.299c11.785,16.655 22.866,33.835 33.11,51.479c13.32,22.944 20.748,50.337 30.624,74.624c3.27,8.042 5.641,18.608 6.889,23.102l-228.797,0c1.762,-7.965 6.338,-26.402 10.847,-53.726c5.8,-35.145 25.362,-64.888 27.699,-100.654c0.41,-6.273 -3.061,-26.598 8.655,-26.627l0.155,0.001" style="fill:#fff;fill-rule:nonzero;" />
            <path d="M365.923,230.875c20.987,-14.745 41.975,-29.49 62.833,-44.417c10.348,-7.406 20.628,-14.911 30.782,-22.581c5.389,-4.071 10.562,-8.42 15.839,-12.635c5.858,-4.678 11.713,-9.361 17.567,-14.044c-10.875,2.476 -21.752,4.951 -32.576,7.641c-9.86,2.45 -19.707,4.968 -29.471,7.778c-42.655,12.277 -82.14,32.221 -123.825,47.142c-12.285,29.327 -38.263,49.663 -69.836,54.284c-7.31,1.07 -14.714,1.356 -22.072,2.023c-2.962,0.269 -6.104,-0.26 -8.889,0.784c-1.18,0.442 2.336,1.022 3.583,1.205c3.853,0.565 7.745,0.969 11.639,1.028c17.723,0.271 35.451,0.036 53.176,-0.038c9.578,-0.04 19.167,0.163 28.734,-0.304c25.609,-1.249 41.843,-13.119 62.516,-27.866" style="fill:#fff;fill-rule:nonzero;" />
          </g>
        </g>
      </g>
      <path id="Curve" d="M300.035,0.806c165.567,0 299.985,134.419 299.985,299.985c0,165.566 -134.418,299.985 -299.985,299.985c-165.566,0 -299.985,-134.419 -299.985,-299.985c0,-165.566 134.419,-299.985 299.985,-299.985Zm0.074,15.14c157.211,0 284.846,127.635 284.846,284.845c0,157.21 -127.635,284.845 -284.846,284.845c-157.21,0 -284.845,-127.635 -284.845,-284.845c0,-157.21 127.635,-284.845 284.845,-284.845Z" style="fill:#424242;" />
    </g>
    <g>
      <g transform="matrix(1.3045,0,0,1.35146,-908.781,32.1975)">
        <g transform="matrix(288.288,0,0,288.288,1226.64,306.851)">
          <path d="M0.273,0.01c-0.053,0 -0.093,-0.016 -0.122,-0.047c-0.029,-0.031 -0.043,-0.08 -0.043,-0.149l0,-0.24c0,-0.029 -0.008,-0.048 -0.025,-0.056c-0.016,-0.008 -0.035,-0.012 -0.057,-0.012l-0.003,0l0,-0.042l0.179,0l0,0.345c0,0.043 0.007,0.077 0.022,0.101c0.015,0.024 0.042,0.036 0.083,0.036c0.044,0 0.076,-0.015 0.096,-0.045c0.02,-0.029 0.03,-0.068 0.03,-0.117l0,-0.206c0,-0.031 -0.008,-0.051 -0.024,-0.059c-0.016,-0.009 -0.035,-0.013 -0.058,-0.013l-0.003,0l0,-0.042l0.179,0l0,0.427c0,0.029 0.008,0.048 0.024,0.056c0.017,0.007 0.036,0.011 0.058,0.011l0.003,0l0,0.042l-0.159,0l-0.013,-0.081l-0.005,0c-0.021,0.037 -0.045,0.062 -0.072,0.074c-0.027,0.011 -0.057,0.017 -0.09,0.017Z" style="fill:#424242;fill-rule:nonzero;" />
        </g>
        <g transform="matrix(288.288,0,0,288.288,1409.7,306.851)">
          <path d="M0.028,0l0,-0.042l0.008,0c0.023,0 0.042,-0.004 0.058,-0.012c0.016,-0.009 0.024,-0.029 0.024,-0.06l0,-0.312c0,-0.029 -0.008,-0.048 -0.023,-0.056c-0.016,-0.008 -0.035,-0.012 -0.057,-0.012l-0.005,0l0,-0.042l0.162,0l0.013,0.081l0.005,0c0.021,-0.037 0.044,-0.062 0.069,-0.073c0.026,-0.012 0.055,-0.018 0.087,-0.018c0.053,0 0.094,0.016 0.123,0.047c0.03,0.031 0.045,0.08 0.045,0.149l0,0.236c0,0.031 0.007,0.051 0.02,0.06c0.014,0.008 0.032,0.012 0.055,0.012l0.005,0l0,0.042l-0.174,0l0,-0.345c0,-0.043 -0.008,-0.077 -0.025,-0.101c-0.016,-0.024 -0.044,-0.036 -0.085,-0.036c-0.03,0 -0.054,0.008 -0.072,0.023c-0.017,0.015 -0.03,0.034 -0.038,0.059c-0.007,0.025 -0.011,0.051 -0.011,0.08l0,0.211c0,0.029 0.008,0.048 0.023,0.056c0.016,0.007 0.035,0.011 0.057,0.011l0.005,0l0,0.042l-0.269,0Z" style="fill:#424242;fill-rule:nonzero;" />
        </g>
        <g transform="matrix(288.288,0,0,288.288,1595.65,306.851)">
          <path d="M0.161,-0.636c-0.016,0 -0.029,-0.005 -0.041,-0.014c-0.01,-0.009 -0.016,-0.025 -0.016,-0.048c0,-0.023 0.006,-0.039 0.017,-0.048c0.011,-0.009 0.024,-0.014 0.04,-0.014c0.015,0 0.029,0.005 0.04,0.014c0.011,0.009 0.017,0.025 0.017,0.048c0,0.023 -0.006,0.039 -0.017,0.048c-0.011,0.009 -0.025,0.014 -0.04,0.014Zm-0.138,0.636l0,-0.042l0.013,0c0.022,0 0.041,-0.004 0.058,-0.011c0.016,-0.008 0.024,-0.027 0.024,-0.056l0,-0.317c0,-0.029 -0.008,-0.048 -0.024,-0.056c-0.017,-0.008 -0.036,-0.012 -0.058,-0.012l-0.003,0l0,-0.042l0.179,0l0,0.422c0,0.031 0.008,0.051 0.024,0.06c0.016,0.008 0.035,0.012 0.058,0.012l0.013,0l0,0.042l-0.284,0Z" style="fill:#424242;fill-rule:nonzero;" />
        </g>
        <g transform="matrix(288.288,0,0,288.288,1687.9,306.851)">
          <path d="M0.005,0l0,-0.042l0.009,0c0.024,0 0.043,-0.004 0.058,-0.013c0.015,-0.009 0.032,-0.026 0.051,-0.051l0.126,-0.163l-0.126,-0.172c-0.015,-0.017 -0.029,-0.03 -0.042,-0.039c-0.014,-0.009 -0.029,-0.014 -0.044,-0.014l-0.013,0l0,-0.042l0.254,0l0,0.042l-0.003,0c-0.023,0 -0.039,0.003 -0.046,0.009c-0.007,0.005 -0.011,0.012 -0.011,0.02c0,0.007 0.002,0.014 0.006,0.021c0.004,0.006 0.01,0.014 0.017,0.025l0.066,0.09l0.052,-0.075c0.007,-0.011 0.013,-0.022 0.018,-0.033c0.005,-0.01 0.007,-0.019 0.007,-0.028c0,-0.012 -0.005,-0.02 -0.016,-0.024c-0.01,-0.003 -0.023,-0.005 -0.038,-0.005l-0.003,0l0,-0.042l0.219,0l0,0.042l-0.009,0c-0.019,0 -0.036,0.004 -0.05,0.012c-0.014,0.008 -0.031,0.025 -0.051,0.052l-0.103,0.137l0.147,0.198c0.015,0.019 0.028,0.033 0.041,0.041c0.013,0.008 0.026,0.012 0.039,0.012l0.013,0l0,0.042l-0.258,0l0,-0.042l0.005,0c0.04,0 0.06,-0.011 0.06,-0.033c0,-0.007 -0.003,-0.015 -0.008,-0.024c-0.005,-0.009 -0.015,-0.024 -0.03,-0.045l-0.067,-0.09l-0.07,0.098c-0.006,0.008 -0.012,0.018 -0.018,0.03c-0.006,0.011 -0.009,0.022 -0.009,0.033c0,0.011 0.005,0.019 0.014,0.024c0.01,0.005 0.026,0.007 0.048,0.007l0.003,0l0,0.042l-0.238,0Z" style="fill:#424242;fill-rule:nonzero;" />
        </g>
        <g transform="matrix(288.288,0,0,288.288,1854.53,306.851)">
          <path d="M0.392,0l-0.172,-0.56l-0.004,0c0.001,0.013 0.002,0.033 0.003,0.06c0.001,0.027 0.003,0.055 0.004,0.086c0.001,0.031 0.002,0.058 0.002,0.082l0,0.332l-0.135,0l0,-0.714l0.206,0l0.169,0.546l0.003,0l0.179,-0.546l0.206,0l0,0.714l-0.141,0l0,-0.338c0,-0.023 0.001,-0.049 0.002,-0.078c0.001,-0.029 0.002,-0.057 0.003,-0.083c0.001,-0.027 0.001,-0.047 0.002,-0.06l-0.004,0l-0.184,0.559l-0.139,0Z" style="fill:#2da235;fill-rule:nonzero;" />
        </g>
        <g transform="matrix(288.288,0,0,288.288,2126.39,306.851)">
          <path d="M0.153,-0.76c0.022,0 0.041,0.005 0.057,0.015c0.016,0.011 0.024,0.03 0.024,0.058c0,0.027 -0.008,0.046 -0.024,0.057c-0.016,0.011 -0.035,0.016 -0.057,0.016c-0.023,0 -0.042,-0.005 -0.057,-0.016c-0.016,-0.011 -0.024,-0.03 -0.024,-0.057c0,-0.028 0.008,-0.047 0.023,-0.058c0.016,-0.01 0.035,-0.015 0.058,-0.015Zm0.074,0.214l0,0.546l-0.149,0l0,-0.546l0.149,0Z" style="fill:#2da235;fill-rule:nonzero;" />
        </g>
        <g transform="matrix(288.288,0,0,288.288,2214.32,306.851)">
          <path d="M0.09,-0.714l0.222,0c0.095,0 0.166,0.013 0.215,0.04c0.049,0.027 0.074,0.074 0.074,0.141c0,0.041 -0.009,0.075 -0.028,0.103c-0.019,0.028 -0.047,0.045 -0.082,0.051l0,0.005c0.023,0.005 0.045,0.014 0.065,0.025c0.019,0.012 0.035,0.029 0.046,0.052c0.011,0.023 0.017,0.053 0.017,0.09c0,0.065 -0.023,0.115 -0.071,0.152c-0.047,0.037 -0.11,0.055 -0.191,0.055l-0.267,0l0,-0.714Zm0.151,0.283l0.088,0c0.044,0 0.075,-0.007 0.091,-0.021c0.017,-0.013 0.026,-0.034 0.026,-0.061c0,-0.027 -0.01,-0.047 -0.03,-0.059c-0.02,-0.012 -0.052,-0.018 -0.095,-0.018l-0.08,0l0,0.159Zm0,0.12l0,0.186l0.099,0c0.045,0 0.077,-0.009 0.095,-0.027c0.018,-0.017 0.027,-0.041 0.027,-0.07c0,-0.027 -0.009,-0.048 -0.028,-0.065c-0.018,-0.016 -0.051,-0.024 -0.099,-0.024l-0.094,0Z" style="fill:#2da235;fill-rule:nonzero;" />
        </g>
      </g>
    </g>
  </g>
</svg>