<?xml version="1.0" encoding="UTF-8" standalone="no" ?>
<!DOCTYPE svg PUBLIC "-//W3C//DTD SVG 1.1//EN" "http://www.w3.org/Graphics/SVG/1.1/DTD/svg11.dtd">
<svg height="2.3em" viewBox="0 0 9221 2500" version="1.1" xmlns="http://www.w3.org/2000/svg" xmlns:xlink="http://www.w3.org/1999/xlink" xml:space="preserve" style="fill-rule:evenodd;clip-rule:evenodd;stroke-linejoin:round;stroke-miterlimit:2;">
  <rect id="Combination-Mark" x="0" y="3.295" width="9220.83" height="2500" style="fill:none;" />
  <g>
    <g>
      <circle cx="1250.15" cy="1253.3" r="1216.67" style="fill:#fff;" />
      <clipPath id="_clip1a">
        <circle cx="1250.15" cy="1253.3" r="1216.67" />
      </clipPath>
      <g clip-path="url(#_clip1a)">
        <clipPath>
          <rect id="Mascotte" x="-0.069" y="3.295" width="2500.22" height="2500.03" />
        </clipPath>
        <g clip-path="url(#_clip2a)">
          <g>
            <path d="M1688.47,2503.33c-8.961,-38.075 -25.983,-103.391 -37.792,-132.132c-3.171,-7.716 -6.38,-15.441 -9.534,-23.15c-53.414,-139.325 -117.859,-290.592 -204.179,-414.562c-30.628,-43.988 -65.699,-84.711 -98.877,-126.81c-32.488,-41.221 -71.844,-75.467 -71.844,-131.514c0,-118.891 64.941,-253.715 105.659,-361.324c29.685,-78.452 29.504,-77.865 70.973,-151.12c6.664,-11.772 14.111,-23.09 21.547,-34.391c38.739,-60.65 88.343,-114.127 146.021,-157.316c132.892,-92.371 235.827,-173.658 361.109,-279.863c62.537,-53.014 128.492,-103.68 180.554,-167.012c-68.134,11.302 -136.281,22.606 -204.115,35.585c-172.339,32.975 -171.042,35.338 -340.688,82.533c-105.934,29.471 -206.954,50.045 -316.865,39.115c-82.288,-8.183 -159.112,-37.326 -239.716,-51.483c-96.357,-16.924 -197.516,1.175 -286.594,40.143c-75.933,33.218 -109.698,55.167 -177.967,107.665c-108.637,83.54 -195.291,208.987 -230.659,341.424c-28.646,107.268 -29.086,223.703 -49.801,332.691c-21.099,111.01 -52.094,230.217 -88.391,336.631c-3.979,9.817 -8.146,19.767 -12.458,29.812c-60.008,139.785 -118.444,450.644 -134.085,685.078" style="fill:#424242;" />
            <path d="M1108.57,831.465c-61.187,68.208 -174.888,29.534 -186.738,-61.479c-18.278,8.442 -35.305,19.843 -50.73,32.782c-30.225,25.354 -45.247,48.114 -58.603,84.147c-8.709,23.496 4.673,50.201 28.911,56.833c14.862,4.066 30.141,7.384 45.539,7.923c64.191,2.244 128.01,-21.488 176.426,-63.129c17.275,-14.857 36.475,-35.23 45.195,-57.077" style="fill:#757575;" />
            <path d="M960.28,757.463c-4.81,23.364 2.55,47.874 19.703,64.822c10.011,9.892 22.867,16.739 36.544,19.467c4.923,0.982 14.99,1.45 14.99,1.45c35.902,-0.203 65.515,-26.295 70.907,-60.315l0.361,0.405c6.389,7.259 9.742,15.052 10.26,24.457c0.425,7.567 -1.225,15.558 -4.48,23.717c-19.632,21.89 -47.506,35.703 -78.569,35.918l-0.735,0.003c-54.979,0 -100.275,-42.421 -107.433,-97.4c0.775,-0.359 1.533,-0.742 2.312,-1.092c12.088,-5.388 23.564,-9.146 36.234,-11.879l-0.094,0.447" style="fill:#fff;" />
            <path d="M803.939,1749.13c43.797,0.666 102.684,79.468 177.822,79.693l1.112,-0.003c57.255,-0.42 87.617,-60.976 142.165,-60.941l1.166,0.009c58.015,0.938 111.067,73.596 139.475,113.746c49.102,69.396 95.275,140.979 137.958,214.498c55.502,95.601 86.45,209.737 127.6,310.933c13.624,33.506 23.504,77.533 28.705,96.26l-953.32,0c7.339,-33.188 26.406,-110.009 45.194,-223.86c24.166,-146.438 105.674,-270.365 115.415,-419.39c1.708,-26.14 -12.754,-110.826 36.062,-110.949l0.646,0.004" style="fill:#fff;fill-rule:nonzero;" />
            <path d="M1524.68,961.979c87.447,-61.436 174.896,-122.873 261.804,-185.071c43.119,-30.859 85.951,-62.13 128.261,-94.089c22.454,-16.961 44.007,-35.082 65.995,-52.642c24.409,-19.493 48.802,-39.005 73.195,-58.517c-45.313,10.314 -90.631,20.629 -135.731,31.836c-41.085,10.21 -82.117,20.698 -122.799,32.408c-177.727,51.156 -342.248,134.253 -515.938,196.425c-51.185,122.197 -159.427,206.93 -290.982,226.185c-30.459,4.459 -61.307,5.65 -91.965,8.429c-12.344,1.119 -25.434,-1.084 -37.04,3.265c-4.917,1.842 9.734,4.258 14.929,5.02c16.057,2.356 32.272,4.038 48.499,4.286c73.846,1.128 147.71,0.149 221.563,-0.16c39.911,-0.167 79.864,0.678 119.728,-1.267c106.702,-5.204 174.344,-54.661 260.481,-116.108" style="fill:#fff;fill-rule:nonzero;" />
          </g>
        </g>
      </g>
      <path d="M1250.15,3.357c689.859,0 1249.94,560.079 1249.94,1249.94c0,689.86 -560.079,1249.94 -1249.94,1249.94c-689.86,0 -1249.94,-560.078 -1249.94,-1249.94c0,-689.859 560.078,-1249.94 1249.94,-1249.94Zm0.309,63.083c655.043,0 1186.86,531.812 1186.86,1186.86c0,655.043 -531.812,1186.86 -1186.86,1186.86c-655.043,0 -1186.86,-531.812 -1186.86,-1186.86c0,-655.043 531.812,-1186.86 1186.86,-1186.86Z" style="fill:#424242;" />
    </g>
    <g>
      <g transform="matrix(5.43541,0,0,5.63109,-3786.59,134.156)">
        <g transform="matrix(288.288,0,0,288.288,1226.64,306.851)">
          <path d="M0.423,-0.447l0,0.271c0,0.051 0.002,0.083 0.004,0.095c0.002,0.011 0.006,0.019 0.012,0.024c0.005,0.004 0.011,0.007 0.019,0.007c0.01,0 0.021,-0.003 0.034,-0.009l0.007,0.017l-0.134,0.056l-0.022,0l0,-0.095c-0.039,0.042 -0.068,0.068 -0.088,0.079c-0.02,0.01 -0.042,0.016 -0.064,0.016c-0.025,0 -0.047,-0.008 -0.065,-0.022c-0.019,-0.015 -0.031,-0.033 -0.039,-0.056c-0.007,-0.023 -0.01,-0.055 -0.01,-0.097l0,-0.199c0,-0.022 -0.003,-0.036 -0.007,-0.044c-0.005,-0.008 -0.011,-0.015 -0.02,-0.019c-0.009,-0.004 -0.026,-0.007 -0.049,-0.006l0,-0.018l0.157,0l0,0.299c0,0.042 0.007,0.069 0.021,0.082c0.015,0.013 0.032,0.02 0.053,0.02c0.014,0 0.03,-0.005 0.048,-0.014c0.017,-0.008 0.038,-0.025 0.063,-0.05l0,-0.253c0,-0.026 -0.005,-0.043 -0.014,-0.052c-0.009,-0.009 -0.029,-0.014 -0.058,-0.014l0,-0.018l0.152,0Z" style="fill:#424242;fill-rule:nonzero;" />
        </g>
        <g transform="matrix(288.288,0,0,288.288,1370.78,306.851)">
          <path d="M0.162,-0.366c0.052,-0.063 0.102,-0.094 0.15,-0.094c0.024,0 0.045,0.006 0.063,0.018c0.017,0.012 0.031,0.032 0.042,0.06c0.007,0.02 0.01,0.05 0.01,0.09l0,0.191c0,0.028 0.003,0.047 0.007,0.058c0.004,0.008 0.009,0.014 0.017,0.019c0.008,0.004 0.023,0.006 0.045,0.006l0,0.018l-0.222,0l0,-0.018l0.01,0c0.021,0 0.035,-0.003 0.043,-0.009c0.009,-0.006 0.014,-0.016 0.018,-0.028c0.001,-0.005 0.002,-0.02 0.002,-0.046l0,-0.183c0,-0.041 -0.006,-0.07 -0.016,-0.089c-0.011,-0.018 -0.029,-0.027 -0.054,-0.027c-0.038,0 -0.077,0.021 -0.115,0.063l0,0.236c0,0.03 0.001,0.049 0.005,0.056c0.005,0.01 0.011,0.016 0.019,0.021c0.008,0.004 0.024,0.006 0.048,0.006l0,0.018l-0.221,0l0,-0.018l0.01,0c0.023,0 0.038,-0.005 0.046,-0.017c0.008,-0.011 0.012,-0.034 0.012,-0.066l0,-0.166c0,-0.054 -0.001,-0.087 -0.004,-0.098c-0.002,-0.012 -0.006,-0.02 -0.011,-0.024c-0.005,-0.004 -0.012,-0.007 -0.02,-0.007c-0.009,0 -0.02,0.003 -0.033,0.008l-0.007,-0.018l0.135,-0.054l0.021,0l0,0.094Z" style="fill:#424242;fill-rule:nonzero;" />
        </g>
        <g transform="matrix(288.288,0,0,288.288,1514.93,306.851)">
          <path d="M0.145,-0.694c0.014,0 0.025,0.004 0.035,0.014c0.01,0.01 0.014,0.021 0.014,0.035c0,0.014 -0.004,0.025 -0.014,0.035c-0.01,0.01 -0.021,0.015 -0.035,0.015c-0.014,0 -0.025,-0.005 -0.035,-0.015c-0.01,-0.01 -0.015,-0.021 -0.015,-0.035c0,-0.014 0.005,-0.025 0.015,-0.035c0.009,-0.01 0.021,-0.014 0.035,-0.014Zm0.041,0.234l0,0.359c0,0.028 0.002,0.047 0.006,0.056c0.004,0.009 0.01,0.016 0.018,0.021c0.008,0.004 0.022,0.006 0.043,0.006l0,0.018l-0.217,0l0,-0.018c0.022,0 0.037,-0.002 0.044,-0.006c0.008,-0.004 0.014,-0.011 0.018,-0.021c0.004,-0.01 0.006,-0.028 0.006,-0.056l0,-0.172c0,-0.049 -0.001,-0.08 -0.004,-0.095c-0.002,-0.01 -0.006,-0.017 -0.011,-0.021c-0.005,-0.004 -0.011,-0.007 -0.02,-0.007c-0.009,0 -0.02,0.003 -0.033,0.008l-0.007,-0.018l0.135,-0.054l0.022,0Z" style="fill:#424242;fill-rule:nonzero;" />
        </g>
        <g transform="matrix(288.288,0,0,288.288,1595.02,306.851)">
          <path d="M0.013,-0.447l0.211,0l0,0.018c-0.014,0 -0.023,0.002 -0.028,0.007c-0.006,0.004 -0.009,0.01 -0.009,0.018c0.001,0.008 0.006,0.02 0.018,0.036c0.003,0.005 0.009,0.013 0.016,0.024l0.031,0.051l0.037,-0.051c0.024,-0.032 0.035,-0.052 0.035,-0.061c0,-0.007 -0.003,-0.012 -0.008,-0.017c-0.006,-0.005 -0.015,-0.007 -0.027,-0.007l0,-0.018l0.151,0l0,0.018c-0.016,0.001 -0.029,0.005 -0.041,0.013c-0.016,0.011 -0.038,0.035 -0.066,0.072l-0.061,0.082l0.112,0.16c0.027,0.039 0.047,0.063 0.058,0.071c0.012,0.008 0.027,0.012 0.046,0.013l0,0.018l-0.211,0l0,-0.018c0.015,0 0.026,-0.003 0.034,-0.009c0.006,-0.005 0.009,-0.011 0.009,-0.018c0,-0.008 -0.01,-0.027 -0.031,-0.057l-0.065,-0.096l-0.072,0.096c-0.022,0.03 -0.033,0.047 -0.033,0.053c0,0.007 0.003,0.015 0.011,0.021c0.007,0.006 0.018,0.01 0.033,0.01l0,0.018l-0.146,0l0,-0.018c0.011,-0.001 0.022,-0.005 0.03,-0.012c0.013,-0.009 0.034,-0.033 0.063,-0.072l0.094,-0.125l-0.085,-0.123c-0.024,-0.035 -0.043,-0.057 -0.056,-0.066c-0.013,-0.009 -0.03,-0.013 -0.05,-0.013l0,-0.018Z" style="fill:#424242;fill-rule:nonzero;" />
        </g>
        <g transform="matrix(288.288,0,0,288.288,1739.17,306.851)">
          <path d="M0.071,0l0,-0.716l0.216,0l0.13,0.488l0.128,-0.488l0.217,0l0,0.716l-0.134,0l0,-0.563l-0.142,0.563l-0.139,0l-0.142,-0.563l0,0.563l-0.134,0Z" style="fill:#2da235;fill-rule:nonzero;" />
        </g>
        <g transform="matrix(288.288,0,0,288.288,1979.31,306.851)">
          <path d="M0.072,-0.589l0,-0.127l0.137,0l0,0.127l-0.137,0Zm0,0.589l0,-0.519l0.137,0l0,0.519l-0.137,0Z" style="fill:#2da235;fill-rule:nonzero;" />
        </g>
        <g transform="matrix(288.288,0,0,288.288,2059.41,306.851)">
          <path d="M0.073,-0.716l0.286,0c0.057,0 0.099,0.003 0.127,0.007c0.028,0.005 0.053,0.015 0.075,0.03c0.022,0.015 0.04,0.035 0.055,0.06c0.014,0.025 0.022,0.052 0.022,0.083c0,0.034 -0.009,0.065 -0.027,0.093c-0.018,0.028 -0.043,0.049 -0.074,0.063c0.044,0.012 0.077,0.034 0.101,0.065c0.023,0.03 0.035,0.066 0.035,0.107c0,0.033 -0.008,0.065 -0.023,0.095c-0.015,0.031 -0.036,0.056 -0.062,0.074c-0.026,0.019 -0.058,0.03 -0.097,0.034c-0.024,0.003 -0.082,0.004 -0.174,0.005l-0.244,0l0,-0.716Zm0.145,0.119l0,0.166l0.094,0c0.057,0 0.092,-0.001 0.105,-0.003c0.025,-0.003 0.045,-0.011 0.059,-0.025c0.014,-0.014 0.021,-0.033 0.021,-0.056c0,-0.022 -0.006,-0.04 -0.018,-0.054c-0.012,-0.014 -0.031,-0.022 -0.055,-0.025c-0.014,-0.002 -0.055,-0.003 -0.123,-0.003l-0.083,0Zm0,0.285l0,0.191l0.134,0c0.052,0 0.085,-0.001 0.099,-0.004c0.021,-0.004 0.039,-0.013 0.052,-0.029c0.014,-0.015 0.02,-0.035 0.02,-0.06c0,-0.022 -0.005,-0.04 -0.015,-0.055c-0.011,-0.015 -0.026,-0.026 -0.045,-0.033c-0.02,-0.007 -0.063,-0.01 -0.129,-0.01l-0.116,0Z" style="fill:#2da235;fill-rule:nonzero;" />
        </g>
      </g>
    </g>
  </g>
</svg>